# xmcd
#
# Track frame offsets:
#	150
#	22699
#	38435
#	49194
#	66674
#	94338
#	120330
#	139120
#	153450
#
# Disc length: 2538 seconds
#
# Revision: 0
# Processed by: cddbd v1.5.2PL0 Copyright (c) Steve Scherf et al.
# Submitted via: dBpowerAMP V4.0
#
DISCID=6f09e809
DTITLE=Ellen McIlwaine - Mystic Bridge
DYEAR=2006
DGENRE=Blues
TTITLE0=Take Me To The River
TTITLE1=Save The World
TTITLE2=Crawlin' Kingsnake
TTITLE3=Disposable Society
TTITLE4=Sidu
TTITLE5=May This Be Love
TTITLE6=Dead End Street
TTITLE7=We The People
TTITLE8=The Question-/ Darbari Raag
EXTD=
EXTT0=
EXTT1=
EXTT2=
EXTT3=
EXTT4=
EXTT5=
EXTT6=
EXTT7=
EXTT8=
PLAYORDER=
